<svg id="Group_7" data-name="Group 7" xmlns="http://www.w3.org/2000/svg" xmlns:xlink="http://www.w3.org/1999/xlink" width="32" height="32" viewBox="0 0 32 32">
  <defs>
    <linearGradient id="linear-gradient" x1="0.5" x2="0.5" y2="1" gradientUnits="objectBoundingBox">
      <stop offset="0" stop-color="#968fff"/>
      <stop offset="1" stop-color="#757ae9"/>
    </linearGradient>
  </defs>
  <circle id="Ellipse_10" data-name="Ellipse 10" cx="16" cy="16" r="16" fill="url(#linear-gradient)"/>
  <g id="Group_3" data-name="Group 3" transform="translate(7.851 8.508)">
    <path id="Path_9" data-name="Path 9" d="M-50.085-76.181a2.146,2.146,0,0,1,2.1,2.379v3c0,.716.3,1.127.825,1.127s.825-.411.825-1.127v-1.5a.63.63,0,0,1,.635-.626h2.032a2.691,2.691,0,0,1,2.363,1.23,4.75,4.75,0,0,1,.651,2.6c0,2.663-1.607,6.689-4.029,6.689h-8.127c-2.294,0-4.142-3.683-4.142-6.732a4.518,4.518,0,0,1,.684-2.583,2.833,2.833,0,0,1,2.443-1.2h1.651V-73.8A2.146,2.146,0,0,1-50.085-76.181Zm2.921,7.762a2.146,2.146,0,0,1-2.1-2.379v-3c0-.716-.3-1.127-.825-1.127s-.825.411-.825,1.127v1.5a.63.63,0,0,1-.635.626h-2.286a1.571,1.571,0,0,0-1.4.657,3.317,3.317,0,0,0-.461,1.875c0,2.51,1.557,5.48,2.872,5.48h8.127c1.29,0,2.76-2.9,2.76-5.437a3.548,3.548,0,0,0-.447-1.918,1.435,1.435,0,0,0-1.3-.657h-1.4v.876A2.146,2.146,0,0,1-47.164-68.419Z" transform="translate(56.957 76.181)" fill="#fff"/>
    <path id="_." data-name="." d="M.776,0a.687.687,0,0,1,.776.713.687.687,0,0,1-.776.713A.687.687,0,0,1,0,.713.687.687,0,0,1,.776,0Z" transform="translate(8.994 8.565)" fill="#fff"/>
  </g>
</svg>
